<?xml version="1.0" encoding="utf-8"?>
<!-- Generator: Adobe Illustrator 16.0.0, SVG Export Plug-In . SVG Version: 6.00 Build 0)  -->
<!DOCTYPE svg PUBLIC "-//W3C//DTD SVG 1.1//EN" "http://www.w3.org/Graphics/SVG/1.1/DTD/svg11.dtd">
<svg version="1.1" id="图层_1" xmlns="http://www.w3.org/2000/svg" xmlns:xlink="http://www.w3.org/1999/xlink" x="0px" y="0px"
	 width="192.538px" height="54.102px" viewBox="0 0 192.538 54.102" enable-background="new 0 0 192.538 54.102"
	 xml:space="preserve">
<g>
	<path fill="#FFFEFE" d="M13.973,30.836c-2.166-2.168-3.506-5.16-3.506-8.465c0-6.051,4.49-11.039,10.318-11.846V0
		C9.166,0.848,0,10.535,0,22.371c0,6.195,2.512,11.805,6.572,15.865l6.129,6.129l7.4-7.4L13.973,30.836z"/>
	<path fill="#00A29A" d="M24.09,0v10.525c5.828,0.807,10.319,5.795,10.319,11.846c0,3.305-1.34,6.297-3.507,8.465l-5.145,5.145
		l-3.32,3.32l-7.4,7.4l7.4,7.4l15.866-15.865c4.061-4.061,6.571-9.67,6.571-15.865C44.875,10.535,35.709,0.846,24.09,0z"/>
	<circle fill="#EEEEEE" cx="22.61" cy="22.369" r="6.81"/>
	<g>
		<path fill="#FFFFFF" d="M54.257,45.508c0.069-0.646,0.14-1.488,0.212-2.527c0.071-1.039,0.113-1.867,0.125-2.484l-3.9-6.883
			c0.656,0.012,1.166,0.018,1.532,0.018c0.348,0,0.812-0.006,1.393-0.018c0.261,0.604,0.642,1.367,1.142,2.293
			s0.93,1.775,1.29,2.549l2.592-4.18c0.088-0.146,0.216-0.367,0.385-0.662c0.563,0.012,1.062,0.018,1.497,0.018
			c0.227,0,0.693-0.006,1.401-0.018l-4.757,7.066l-0.106,2.205c-0.035,0.65-0.062,1.525-0.079,2.623
			c-0.621-0.012-1.074-0.018-1.358-0.018C55.334,45.49,54.878,45.496,54.257,45.508z"/>
		<path fill="#FFFFFF" d="M66.918,36.436c0.668,0,1.309,0.102,1.921,0.301c0.613,0.201,1.133,0.498,1.56,0.889
			c0.428,0.393,0.748,0.873,0.963,1.439s0.322,1.162,0.322,1.789c0,0.662-0.113,1.303-0.34,1.918
			c-0.226,0.615-0.555,1.148-0.984,1.598c-0.43,0.451-0.966,0.787-1.607,1.012c-0.642,0.223-1.326,0.336-2.052,0.336
			c-0.674,0-1.314-0.102-1.922-0.301c-0.606-0.201-1.125-0.502-1.555-0.902c-0.431-0.4-0.757-0.889-0.98-1.463
			c-0.224-0.576-0.336-1.178-0.336-1.805c0-0.639,0.102-1.248,0.306-1.83c0.203-0.58,0.521-1.098,0.954-1.551
			s0.985-0.805,1.659-1.055S66.197,36.436,66.918,36.436z M66.917,38.23c-0.503,0-0.953,0.125-1.35,0.371
			c-0.396,0.248-0.691,0.615-0.886,1.102c-0.193,0.488-0.291,1.02-0.291,1.596c0,0.506,0.08,0.955,0.239,1.35
			c0.159,0.396,0.419,0.715,0.781,0.959c0.361,0.244,0.791,0.365,1.289,0.365c0.51,0,0.956-0.125,1.342-0.379
			c0.385-0.252,0.674-0.623,0.868-1.115c0.193-0.49,0.291-1.031,0.291-1.625c0-0.482-0.076-0.92-0.227-1.314
			c-0.15-0.396-0.403-0.713-0.76-0.951C67.859,38.35,67.427,38.23,66.917,38.23z"/>
		<path fill="#FFFFFF" d="M82.168,45.508c-0.512-0.012-0.904-0.018-1.178-0.018c-0.343,0-0.731,0.006-1.168,0.018l0.016-1.447
			c-0.162,0.244-0.305,0.439-0.427,0.588s-0.281,0.293-0.479,0.436c-0.197,0.143-0.412,0.256-0.645,0.34
			c-0.231,0.084-0.498,0.154-0.797,0.209c-0.299,0.057-0.617,0.084-0.954,0.084c-0.65,0-1.216-0.096-1.698-0.283
			c-0.482-0.189-0.864-0.475-1.146-0.859c-0.281-0.383-0.423-0.932-0.423-1.646v-0.184l0.142-2.248l0.132-2.961
			c0.006-0.238,0.009-0.535,0.009-0.891c0.552,0.012,0.983,0.018,1.297,0.018c0.331,0,0.73-0.006,1.201-0.018l-0.29,3.975
			c-0.018,0.309-0.031,0.568-0.039,0.779c-0.009,0.213-0.014,0.365-0.014,0.457c0,0.42,0.063,0.766,0.188,1.041
			c0.124,0.277,0.342,0.488,0.652,0.633s0.643,0.217,0.997,0.217c0.337,0,0.655-0.063,0.957-0.191
			c0.273-0.115,0.507-0.277,0.701-0.488c0.194-0.209,0.358-0.49,0.492-0.844c0.099-0.256,0.174-0.611,0.226-1.064
			c0.041-0.318,0.079-0.867,0.113-1.646c0.049-0.941,0.082-1.896,0.1-2.867c0.576,0.012,1.015,0.018,1.317,0.018
			c0.344,0,0.729-0.006,1.16-0.018c-0.069,0.832-0.142,1.869-0.217,3.115s-0.128,2.275-0.156,3.086
			C82.208,43.656,82.186,44.543,82.168,45.508z"/>
		<path fill="#FFFFFF" d="M84.267,45.508l0.227-1.971l0.577-6.918l0.201-3.006c0.83,0.012,1.436,0.018,1.818,0.018
			c0.308,0,0.868-0.006,1.68-0.018c0.094,0.471,0.163,0.805,0.21,1.002s0.137,0.514,0.271,0.949s0.306,0.965,0.516,1.586
			c0.309,0.941,0.585,1.871,0.829,2.789l0.664,2.492l1.165-3.197l1.696-4.158c0.058-0.139,0.117-0.301,0.179-0.482
			c0.061-0.184,0.163-0.51,0.309-0.98c0.691,0.012,1.308,0.018,1.848,0.018c0.36,0,0.937-0.006,1.727-0.018
			c-0.081,1.672-0.143,3.521-0.183,5.547c-0.04,2.023-0.061,3.535-0.061,4.535c0,0.482,0.006,1.086,0.018,1.813
			c-0.575-0.012-0.968-0.018-1.177-0.018c-0.303,0-0.703,0.006-1.203,0.018c0.035-0.594,0.058-1.082,0.069-1.465l0.146-5.184
			c0.018-0.732,0.026-1.453,0.026-2.162l-0.009-0.705l-3.203,8.479l-0.373,1.037c-0.565-0.012-0.954-0.018-1.164-0.018
			c-0.262,0-0.674,0.006-1.233,0.018l-1.5-5.369c-0.052-0.191-0.174-0.592-0.366-1.201l-0.54-1.777
			c-0.053-0.168-0.092-0.307-0.118-0.414c-0.025-0.107-0.083-0.348-0.17-0.719l-0.113,1.115c-0.029,0.354-0.072,0.947-0.131,1.777
			l-0.34,5.402c-0.012,0.268-0.021,0.662-0.026,1.186l-1.124-0.018C85.216,45.49,84.836,45.496,84.267,45.508z"/>
		<path fill="#FFFFFF" d="M100.813,38.588c0.082-0.418,0.133-0.711,0.152-0.879c0.021-0.168,0.057-0.424,0.109-0.768
			c0.79-0.186,1.487-0.316,2.091-0.393c0.604-0.074,1.188-0.113,1.752-0.113c0.639,0,1.226,0.074,1.76,0.223
			s0.953,0.385,1.255,0.711c0.302,0.324,0.453,0.793,0.453,1.402c0,0.332-0.046,1.176-0.139,2.531
			c-0.092,1.357-0.147,2.758-0.164,4.205c-0.442-0.012-0.85-0.018-1.221-0.018c-0.355,0-0.771,0.006-1.247,0.018
			c0.076-0.703,0.138-1.518,0.185-2.441l0.114-2.168c-0.221,0.145-0.389,0.246-0.505,0.305c-0.117,0.059-0.248,0.111-0.393,0.16
			c-0.146,0.051-0.401,0.125-0.768,0.227s-0.66,0.191-0.881,0.266c-0.221,0.076-0.42,0.162-0.598,0.258s-0.327,0.203-0.449,0.322
			s-0.211,0.244-0.266,0.375c-0.056,0.131-0.083,0.271-0.083,0.422c0,0.244,0.071,0.455,0.214,0.633
			c0.142,0.176,0.32,0.301,0.535,0.369c0.215,0.07,0.468,0.105,0.759,0.105c0.186,0,0.382-0.016,0.588-0.043
			c0.206-0.029,0.483-0.102,0.832-0.219c-0.122,0.332-0.265,0.824-0.427,1.48c-0.413,0.07-0.741,0.113-0.985,0.131
			c-0.243,0.018-0.47,0.027-0.679,0.027c-0.732,0-1.334-0.1-1.804-0.297c-0.471-0.197-0.818-0.512-1.042-0.941
			s-0.335-0.861-0.335-1.299c0-0.248,0.043-0.496,0.131-0.74c0.087-0.244,0.215-0.467,0.384-0.67c0.168-0.203,0.386-0.4,0.653-0.588
			c0.268-0.189,0.654-0.373,1.16-0.549c0.505-0.178,1.174-0.357,2.005-0.537c0.221-0.047,0.45-0.104,0.688-0.17
			s0.429-0.131,0.571-0.195s0.266-0.146,0.37-0.248c0.105-0.102,0.182-0.209,0.231-0.318c0.05-0.111,0.074-0.225,0.074-0.34
			c0-0.227-0.074-0.418-0.223-0.576c-0.147-0.156-0.34-0.266-0.575-0.326s-0.496-0.092-0.78-0.092
			C103.26,37.83,102.092,38.084,100.813,38.588z"/>
		<path fill="#FFFFFF" d="M120.147,43.328c-0.128,0.68-0.238,1.371-0.331,2.074c-0.662,0.117-1.27,0.197-1.821,0.244
			s-1.024,0.07-1.42,0.07c-0.871,0-1.703-0.123-2.496-0.367s-1.508-0.629-2.144-1.154c-0.637-0.525-1.097-1.162-1.381-1.912
			c-0.285-0.75-0.428-1.568-0.428-2.457c0-0.965,0.172-1.855,0.515-2.676c0.343-0.818,0.835-1.51,1.477-2.074
			c0.642-0.563,1.401-0.982,2.278-1.258c0.878-0.277,1.792-0.414,2.745-0.414c0.941,0,1.97,0.107,3.085,0.322
			c0.017,0.518,0.034,0.883,0.052,1.098l0.062,0.932c-0.657-0.174-1.203-0.293-1.639-0.357c-0.436-0.063-0.851-0.096-1.246-0.096
			c-0.621,0-1.219,0.096-1.79,0.283c-0.572,0.189-1.078,0.49-1.517,0.902s-0.775,0.91-1.011,1.494s-0.353,1.193-0.353,1.826
			c0,0.756,0.145,1.432,0.436,2.029c0.29,0.6,0.757,1.084,1.398,1.455c0.642,0.373,1.437,0.559,2.383,0.559
			C117.879,43.852,118.928,43.678,120.147,43.328z"/>
		<path fill="#FFFFFF" d="M126.604,36.436c0.668,0,1.309,0.102,1.921,0.301c0.613,0.201,1.133,0.498,1.56,0.889
			c0.428,0.393,0.748,0.873,0.963,1.439s0.322,1.162,0.322,1.789c0,0.662-0.113,1.303-0.34,1.918
			c-0.226,0.615-0.555,1.148-0.984,1.598c-0.43,0.451-0.966,0.787-1.607,1.012c-0.642,0.223-1.326,0.336-2.052,0.336
			c-0.674,0-1.314-0.102-1.922-0.301c-0.606-0.201-1.125-0.502-1.555-0.902c-0.431-0.4-0.757-0.889-0.98-1.463
			c-0.224-0.576-0.336-1.178-0.336-1.805c0-0.639,0.102-1.248,0.306-1.83c0.203-0.58,0.521-1.098,0.954-1.551
			s0.985-0.805,1.659-1.055S125.884,36.436,126.604,36.436z M126.604,38.23c-0.503,0-0.953,0.125-1.35,0.371
			c-0.396,0.248-0.691,0.615-0.886,1.102c-0.193,0.488-0.291,1.02-0.291,1.596c0,0.506,0.08,0.955,0.239,1.35
			c0.159,0.396,0.419,0.715,0.781,0.959c0.361,0.244,0.791,0.365,1.289,0.365c0.51,0,0.956-0.125,1.342-0.379
			c0.385-0.252,0.674-0.623,0.868-1.115c0.193-0.49,0.291-1.031,0.291-1.625c0-0.482-0.076-0.92-0.227-1.314
			c-0.15-0.396-0.403-0.713-0.76-0.951C127.546,38.35,127.113,38.23,126.604,38.23z"/>
		<path fill="#FFFFFF" d="M141.871,45.508c-0.482-0.012-0.857-0.018-1.124-0.018c-0.291,0-0.692,0.006-1.203,0.018l0.077-1.518
			c-0.256,0.332-0.475,0.588-0.658,0.768c-0.183,0.18-0.409,0.348-0.68,0.5c-0.27,0.154-0.562,0.27-0.875,0.346
			c-0.313,0.074-0.639,0.113-0.976,0.113c-0.558,0-1.08-0.102-1.568-0.305c-0.488-0.205-0.903-0.49-1.246-0.859
			s-0.595-0.807-0.758-1.316c-0.162-0.508-0.244-1.037-0.244-1.59c0-0.76,0.146-1.502,0.436-2.227
			c0.29-0.723,0.688-1.307,1.193-1.756c0.504-0.445,1.076-0.764,1.715-0.949c0.638-0.186,1.323-0.279,2.055-0.279
			c0.527,0,1.126,0.051,1.793,0.148c0.043-0.756,0.064-1.549,0.064-2.379v-0.592c0.547,0.012,0.966,0.018,1.256,0.018
			c0.378,0,0.803-0.006,1.273-0.018c-0.127,1.475-0.248,3.484-0.36,6.025C141.928,42.18,141.871,44.137,141.871,45.508z
			 M139.719,38.24c-0.437-0.117-0.854-0.174-1.255-0.174c-0.459,0-0.897,0.063-1.316,0.191c-0.418,0.127-0.788,0.346-1.11,0.652
			c-0.323,0.309-0.571,0.703-0.745,1.186c-0.175,0.482-0.262,0.947-0.262,1.395s0.08,0.857,0.239,1.229
			c0.16,0.371,0.408,0.666,0.745,0.881s0.717,0.322,1.142,0.322c0.319,0,0.609-0.057,0.871-0.17
			c0.261-0.113,0.499-0.289,0.714-0.523s0.396-0.539,0.545-0.91s0.254-0.865,0.318-1.482
			C139.646,40.383,139.684,39.518,139.719,38.24z"/>
		<path fill="#FFFFFF" d="M151.935,43.529c-0.075,0.342-0.183,0.959-0.322,1.848c-0.628,0.133-1.156,0.223-1.586,0.27
			s-0.862,0.07-1.299,0.07c-0.761,0-1.441-0.076-2.043-0.227s-1.128-0.428-1.581-0.832c-0.453-0.402-0.787-0.898-1.002-1.484
			c-0.216-0.586-0.323-1.201-0.323-1.846c0-0.713,0.125-1.404,0.375-2.076c0.25-0.67,0.6-1.219,1.05-1.645s0.963-0.729,1.538-0.906
			c0.575-0.176,1.177-0.266,1.804-0.266c0.593,0,1.156,0.074,1.69,0.223c0.534,0.146,0.983,0.391,1.347,0.727
			c0.362,0.336,0.642,0.74,0.836,1.213s0.292,0.998,0.292,1.578c0,0.273-0.029,0.555-0.087,0.844l-6.387,0.01
			c-0.012,0.215-0.018,0.385-0.018,0.514c0,0.389,0.066,0.746,0.2,1.07c0.134,0.326,0.328,0.602,0.584,0.828
			c0.255,0.227,0.561,0.395,0.915,0.502c0.354,0.107,0.702,0.16,1.045,0.16c0.401,0,0.835-0.043,1.303-0.131
			C150.733,43.887,151.29,43.738,151.935,43.529z M146.306,40.01l4.078,0.008c0-0.277-0.009-0.482-0.026-0.615
			c-0.018-0.135-0.057-0.285-0.118-0.457c-0.061-0.17-0.144-0.32-0.248-0.451c-0.104-0.129-0.227-0.238-0.366-0.324
			c-0.139-0.088-0.3-0.154-0.483-0.199c-0.183-0.047-0.379-0.07-0.588-0.07c-0.244,0-0.48,0.037-0.71,0.113
			c-0.229,0.074-0.44,0.186-0.632,0.33s-0.348,0.307-0.466,0.484c-0.119,0.18-0.208,0.352-0.267,0.518
			C146.422,39.51,146.363,39.73,146.306,40.01z"/>
		<path fill="#FFFFFF" d="M154.078,45.508c0.022-0.42,0.055-1.199,0.096-2.344l1.324,0.016c0.116,0,0.497-0.004,1.142-0.016
			c-0.029,0.424-0.053,0.85-0.069,1.279l-0.053,1.064l-1.142-0.018C155.33,45.49,154.897,45.496,154.078,45.508z"/>
		<path fill="#FFFFFF" d="M165.588,43.494c-0.028,0.238-0.072,0.508-0.13,0.811c-0.059,0.303-0.119,0.676-0.184,1.123
			c-0.83,0.193-1.649,0.289-2.457,0.289c-0.471,0-0.924-0.045-1.359-0.131c-0.436-0.088-0.841-0.242-1.215-0.467
			c-0.375-0.223-0.705-0.518-0.989-0.885c-0.285-0.365-0.498-0.809-0.641-1.328s-0.214-1.057-0.214-1.607
			c0-0.732,0.118-1.436,0.354-2.109s0.579-1.225,1.032-1.65c0.453-0.428,0.957-0.719,1.512-0.873c0.555-0.152,1.172-0.23,1.852-0.23
			c0.378,0,0.767,0.021,1.168,0.066c0.4,0.043,0.874,0.131,1.42,0.266l0.131,1.908c-0.864-0.297-1.618-0.445-2.262-0.445
			c-0.395,0-0.767,0.068-1.117,0.201c-0.352,0.135-0.652,0.344-0.905,0.633c-0.252,0.287-0.432,0.619-0.539,0.996
			c-0.107,0.379-0.161,0.764-0.161,1.16c0,0.551,0.086,1.029,0.257,1.434c0.171,0.402,0.466,0.715,0.883,0.936
			s0.893,0.332,1.427,0.332c0.261,0,0.578-0.033,0.952-0.102C164.775,43.754,165.171,43.645,165.588,43.494z"/>
		<path fill="#FFFFFF" d="M172.132,36.436c0.668,0,1.309,0.102,1.921,0.301c0.613,0.201,1.133,0.498,1.56,0.889
			c0.428,0.393,0.748,0.873,0.963,1.439s0.322,1.162,0.322,1.789c0,0.662-0.113,1.303-0.34,1.918
			c-0.226,0.615-0.555,1.148-0.984,1.598c-0.43,0.451-0.966,0.787-1.607,1.012c-0.642,0.223-1.326,0.336-2.052,0.336
			c-0.674,0-1.314-0.102-1.922-0.301c-0.606-0.201-1.125-0.502-1.555-0.902c-0.431-0.4-0.757-0.889-0.98-1.463
			c-0.224-0.576-0.336-1.178-0.336-1.805c0-0.639,0.102-1.248,0.306-1.83c0.203-0.58,0.521-1.098,0.954-1.551
			s0.985-0.805,1.659-1.055S171.411,36.436,172.132,36.436z M172.131,38.23c-0.503,0-0.953,0.125-1.35,0.371
			c-0.396,0.248-0.691,0.615-0.886,1.102c-0.193,0.488-0.291,1.02-0.291,1.596c0,0.506,0.08,0.955,0.239,1.35
			c0.159,0.396,0.419,0.715,0.781,0.959c0.361,0.244,0.791,0.365,1.289,0.365c0.51,0,0.956-0.125,1.342-0.379
			c0.385-0.252,0.674-0.623,0.868-1.115c0.193-0.49,0.291-1.031,0.291-1.625c0-0.482-0.076-0.92-0.227-1.314
			c-0.15-0.396-0.403-0.713-0.76-0.951C173.073,38.35,172.641,38.23,172.131,38.23z"/>
		<path fill="#FFFFFF" d="M178.405,45.508c0.081-0.988,0.167-2.463,0.257-4.428c0.09-1.963,0.136-3.441,0.136-4.436
			c0.493,0.012,0.894,0.018,1.201,0.018c0.354,0,0.738-0.006,1.151-0.018l-0.067,1.404c0.186-0.273,0.355-0.496,0.51-0.666
			c0.153-0.172,0.353-0.33,0.597-0.477c0.244-0.145,0.529-0.26,0.857-0.344s0.667-0.127,1.016-0.127
			c0.261,0,0.514,0.025,0.758,0.074c0.243,0.049,0.466,0.119,0.666,0.209s0.371,0.193,0.514,0.311
			c0.143,0.115,0.263,0.246,0.361,0.387c0.099,0.143,0.206,0.354,0.322,0.633c0.128-0.203,0.246-0.373,0.354-0.51
			s0.251-0.277,0.431-0.424c0.181-0.145,0.381-0.268,0.602-0.365c0.221-0.1,0.469-0.176,0.745-0.23
			c0.275-0.057,0.562-0.084,0.857-0.084c0.506,0,0.981,0.084,1.429,0.248c0.447,0.166,0.799,0.428,1.055,0.785
			c0.255,0.357,0.383,0.801,0.383,1.328c0,0.279-0.02,0.689-0.06,1.229c-0.041,0.541-0.09,1.422-0.146,2.645
			c-0.058,1.225-0.089,2.17-0.095,2.838c-0.425-0.012-0.8-0.018-1.126-0.018c-0.384,0-0.835,0.006-1.353,0.018
			c0.053-0.75,0.103-1.535,0.148-2.354l0.105-1.996c0.029-0.504,0.044-0.932,0.044-1.279c0-0.416-0.065-0.729-0.196-0.943
			c-0.131-0.213-0.297-0.365-0.497-0.455s-0.426-0.137-0.676-0.137c-0.261,0-0.498,0.051-0.71,0.15
			c-0.212,0.098-0.41,0.26-0.593,0.48c-0.184,0.223-0.324,0.48-0.423,0.775s-0.171,0.707-0.217,1.238
			c-0.046,0.533-0.083,1.23-0.112,2.096l-0.06,2.424c-0.483-0.012-0.885-0.018-1.204-0.018c-0.32,0-0.748,0.006-1.282,0.018
			c0.04-0.447,0.098-1.363,0.173-2.746c0.075-1.381,0.113-2.314,0.113-2.797c0-0.256-0.021-0.471-0.062-0.648
			c-0.04-0.178-0.123-0.346-0.248-0.506s-0.271-0.277-0.439-0.354c-0.168-0.074-0.363-0.113-0.583-0.113
			c-0.407,0-0.764,0.135-1.071,0.402s-0.533,0.623-0.675,1.07c-0.143,0.447-0.245,1.318-0.309,2.611
			c-0.063,1.291-0.095,2.318-0.095,3.08c-0.533-0.012-0.937-0.018-1.209-0.018C179.376,45.49,178.95,45.496,178.405,45.508z"/>
	</g>
	<g>
		<path fill="#FFFFFF" d="M57.627,6.641l0.647,0.463c-1.664,3.697-3.76,6.718-6.286,9.06l-0.555-0.555
			C54.082,13.082,56.148,10.094,57.627,6.641z M55.131,12.928l0.74,0.185v14.792h-0.74V12.928z M58.644,13.297h5.27
			c0-0.369,0-0.8,0-1.294V7.011l0.832,0.185v4.808c0,0.494,0,0.925,0,1.294h7.858v0.74h-7.951
			c-0.494,5.979-2.805,10.601-6.934,13.867l-0.555-0.555c3.821-2.896,6.04-7.334,6.656-13.313h-5.177V13.297z M70.2,27.164h-1.849
			c-1.479,0-2.219-0.646-2.219-1.941v-9.06l0.832,0.185v8.875c0,0.801,0.462,1.202,1.387,1.202H70.2
			c1.232-0.063,2.034-1.109,2.404-3.144l0.74,0.186C72.849,25.931,71.802,27.164,70.2,27.164z M67.426,8.675l0.555-0.555
			c1.047,0.739,1.941,1.634,2.681,2.681l-0.555,0.555C69.368,10.309,68.474,9.414,67.426,8.675z"/>
		<path fill="#FFFFFF" d="M79.352,9.507h-3.143V8.768h7.396v0.739h-3.42c-0.802,4.5-2.25,8.32-4.345,11.464L75.1,20.508
			C77.256,17.305,78.673,13.637,79.352,9.507z M78.428,16.163h5.084v9.522h-5.084V16.163z M79.167,16.995v8.136h3.513v-8.136H79.167
			z M93.774,21.71v0.647h-8.967V21.71H93.774z M93.589,16.902h1.757c0.862,0,1.232,0.37,1.109,1.109
			c-0.125,3.021-0.309,5.362-0.555,7.026c-0.063,1.849-1.449,2.741-4.16,2.681l-0.185-0.832c2.279,0.246,3.451-0.369,3.513-1.849
			c0.123-0.925,0.277-2.619,0.462-5.085c0.061-0.924,0.123-1.571,0.185-1.941c0-0.245-0.124-0.369-0.37-0.369h-8.413
			c-0.802,0-1.202-0.338-1.202-1.018c0.123-1.231,0.246-2.681,0.37-4.345c0.123-1.17,0.185-1.972,0.185-2.403l0.832,0.092
			c0,0.31-0.032,0.864-0.092,1.664c-0.185,1.85-0.309,3.483-0.37,4.9c-0.062,0.185,0.123,0.309,0.555,0.369h5.455
			c0.123-0.924,0.338-2.496,0.647-4.715c0.185-1.539,0.308-2.618,0.37-3.235c0-0.37-0.125-0.555-0.37-0.555h-8.32V7.658h8.69
			c0.677,0.062,0.985,0.369,0.924,0.924c-0.124,0.802-0.247,1.727-0.37,2.773C94.051,12.959,93.834,14.809,93.589,16.902z"/>
		<path fill="#FFFFFF" d="M119.29,7.843v18.859h-18.212V7.843H119.29z M118.458,25.963V8.582h-16.641v17.381H118.458z
			 M109.768,14.776l0.74,0.37c-1.479,3.328-3.729,6.193-6.749,8.598l-0.37-0.555C106.223,20.91,108.349,18.104,109.768,14.776z
			 M111.617,13.39V9.507l0.832,0.185v3.698h3.975v0.739h-3.975v9.338c0.123,1.171-0.802,1.695-2.773,1.571l-0.092-0.832
			c1.479,0.124,2.156-0.123,2.034-0.739v-9.338h-7.673V13.39H111.617z"/>
		<path fill="#FFFFFF" d="M130.106,8.305h-4.899v18.952h-0.832V7.565h6.009c0.678,0.063,0.893,0.37,0.647,0.925
			c-0.247,0.432-0.709,1.264-1.387,2.496c-0.679,1.233-1.141,2.065-1.387,2.496c1.849,2.588,2.711,4.746,2.588,6.471
			c0.061,1.604-0.987,2.528-3.143,2.773l-0.185-0.832c1.664-0.061,2.526-0.707,2.588-1.941c0.061-1.725-0.894-3.851-2.866-6.379
			C128.165,12.096,129.12,10.339,130.106,8.305z M135.561,8.582V6.549l0.832,0.277v1.756c0.061,8.198-2.588,14.607-7.951,19.229
			l-0.462-0.555C133.095,22.696,135.621,16.473,135.561,8.582z M144.25,26.979l-0.647,0.555c-3.268-3.636-5.671-8.228-7.211-13.774
			l0.647-0.186C138.765,19.368,141.168,23.836,144.25,26.979z"/>
		<path fill="#FFFFFF" d="M147.394,15.608l-0.37-0.647c3.513-1.725,6.409-3.943,8.69-6.656c0.493-0.677,0.893-1.017,1.202-1.017
			c0.246,0,0.647,0.34,1.202,1.017c2.219,2.344,5.208,4.407,8.967,6.194l-0.37,0.739c-3.76-1.725-6.811-3.883-9.152-6.471
			c-0.432-0.615-0.832-0.615-1.202,0C154.018,11.541,151.029,13.821,147.394,15.608z M149.243,26.332
			c1.602-0.616,2.649-1.664,3.143-3.143c0.555-1.355,0.8-3.821,0.74-7.396l0.74,0.186c0.37,6.41-1.109,10.106-4.438,11.094
			L149.243,26.332z M161.076,15.793l0.739,0.186v11.094h-0.739V15.793z"/>
		<path fill="#FFFFFF" d="M177.81,19.307l0.185,0.832c-2.466,0.309-4.747,0.709-6.841,1.201l-0.185-0.739
			c0.123-0.185,0.4-0.555,0.832-1.109c1.725-2.095,2.989-3.759,3.791-4.992c-1.418,0.185-3.083,0.432-4.992,0.739l-0.277-0.832
			c1.54-1.972,3.173-4.622,4.899-7.95l0.74,0.462c-1.418,2.651-2.928,5.117-4.53,7.396c1.602-0.186,3.204-0.431,4.807-0.74
			c0.615-0.924,1.109-1.725,1.479-2.403l0.74,0.462c-0.924,1.604-3.021,4.5-6.287,8.69C174.512,19.953,176.391,19.615,177.81,19.307
			z M177.994,23.467l0.185,0.739c-1.049,0.247-2.62,0.647-4.715,1.202c-1.294,0.245-2.219,0.43-2.773,0.555l-0.185-0.647
			c0.925-0.185,2.342-0.522,4.253-1.017C176.298,23.868,177.377,23.591,177.994,23.467z M183.171,8.768h-4.068v-0.74h11.464
			c0.123,3.945-0.032,6.379-0.462,7.304c-0.37,1.109-1.387,1.604-3.051,1.479l-0.092-0.832c1.355,0.124,2.156-0.246,2.403-1.109
			c0.308-0.615,0.462-2.649,0.462-6.102h-5.824c-0.062,4.067-1.542,6.934-4.438,8.598l-0.462-0.647
			C181.753,15.178,183.109,12.527,183.171,8.768z M190.66,27.35h-11.001v-8.229h11.001V27.35z M180.49,19.861v6.748h9.43v-6.748
			H180.49z"/>
	</g>
</g>
</svg>
