<?xml version="1.0" encoding="utf-8"?>
<!-- Generator: Adobe Illustrator 16.0.0, SVG Export Plug-In . SVG Version: 6.00 Build 0)  -->
<!DOCTYPE svg PUBLIC "-//W3C//DTD SVG 1.1//EN" "http://www.w3.org/Graphics/SVG/1.1/DTD/svg11.dtd">
<svg version="1.1" id="图层_1" xmlns="http://www.w3.org/2000/svg" xmlns:xlink="http://www.w3.org/1999/xlink" x="0px" y="0px"
	 width="192.538px" height="54.102px" viewBox="0 0 192.538 54.102" enable-background="new 0 0 192.538 54.102"
	 xml:space="preserve">
<g>
	<g>
		<g>
			<g>
				<path fill="#FFFFFF" d="M13.973,30.836c-2.166-2.168-3.506-5.16-3.506-8.465c0-6.05,4.49-11.038,10.318-11.845V0
					C9.166,0.848,0,10.535,0,22.371c0,6.196,2.512,11.805,6.572,15.866l6.129,6.129l7.4-7.4L13.973,30.836z"/>
				<path fill="#00A29A" d="M24.09,0v10.526c5.828,0.807,10.319,5.795,10.319,11.845c0,3.306-1.34,6.297-3.507,8.465l-5.145,5.145
					l-3.32,3.32l-7.4,7.4l7.4,7.4l15.866-15.865c4.061-4.061,6.571-9.67,6.571-15.866C44.875,10.535,35.709,0.847,24.09,0z"/>
			</g>
			<circle fill="#FFFFFF" cx="22.61" cy="22.37" r="6.81"/>
		</g>
		<g>
			<path fill="#FFFFFF" d="M54.257,45.506c0.069-0.645,0.14-1.486,0.212-2.526c0.071-1.04,0.113-1.868,0.125-2.483l-3.9-6.883
				c0.656,0.012,1.166,0.017,1.532,0.017c0.348,0,0.812-0.005,1.393-0.017c0.261,0.604,0.642,1.367,1.142,2.293
				s0.93,1.775,1.29,2.547l2.592-4.179c0.088-0.146,0.216-0.366,0.385-0.661c0.563,0.012,1.062,0.017,1.497,0.017
				c0.227,0,0.693-0.005,1.401-0.017l-4.757,7.066l-0.106,2.204c-0.035,0.65-0.062,1.524-0.079,2.622
				c-0.621-0.012-1.074-0.018-1.358-0.018C55.334,45.489,54.878,45.495,54.257,45.506z"/>
			<path fill="#FFFFFF" d="M66.918,36.436c0.668,0,1.309,0.101,1.921,0.301c0.613,0.2,1.133,0.496,1.56,0.889
				c0.428,0.393,0.748,0.871,0.963,1.438s0.322,1.164,0.322,1.791c0,0.662-0.113,1.301-0.34,1.917
				c-0.226,0.616-0.555,1.148-0.984,1.599s-0.966,0.787-1.607,1.011s-1.326,0.335-2.052,0.335c-0.674,0-1.314-0.1-1.922-0.3
				c-0.606-0.2-1.125-0.501-1.555-0.901c-0.431-0.401-0.757-0.89-0.98-1.465c-0.224-0.574-0.336-1.176-0.336-1.803
				c0-0.64,0.102-1.25,0.306-1.83c0.203-0.581,0.521-1.098,0.954-1.551s0.985-0.805,1.659-1.055S66.197,36.436,66.918,36.436z
				 M66.917,38.231c-0.503,0-0.953,0.123-1.35,0.371c-0.396,0.246-0.691,0.613-0.886,1.102c-0.193,0.488-0.291,1.02-0.291,1.595
				c0,0.505,0.08,0.956,0.239,1.351s0.419,0.715,0.781,0.959c0.361,0.243,0.791,0.365,1.289,0.365c0.51,0,0.956-0.126,1.342-0.379
				c0.385-0.252,0.674-0.625,0.868-1.115c0.193-0.49,0.291-1.033,0.291-1.625c0-0.482-0.076-0.921-0.227-1.316
				c-0.15-0.395-0.403-0.711-0.76-0.949C67.859,38.35,67.427,38.231,66.917,38.231z"/>
			<path fill="#FFFFFF" d="M82.168,45.506c-0.512-0.012-0.904-0.018-1.178-0.018c-0.343,0-0.731,0.006-1.168,0.018l0.016-1.445
				c-0.162,0.243-0.305,0.439-0.427,0.588s-0.281,0.293-0.479,0.436c-0.197,0.143-0.412,0.256-0.645,0.34
				c-0.231,0.084-0.498,0.154-0.797,0.209s-0.617,0.082-0.954,0.082c-0.65,0-1.216-0.094-1.698-0.283
				c-0.482-0.188-0.864-0.475-1.146-0.857c-0.281-0.384-0.423-0.933-0.423-1.646v-0.184l0.142-2.248l0.132-2.963
				c0.006-0.238,0.009-0.534,0.009-0.889c0.552,0.012,0.983,0.018,1.297,0.018c0.331,0,0.73-0.006,1.201-0.018l-0.29,3.974
				c-0.018,0.308-0.031,0.567-0.039,0.78c-0.009,0.211-0.014,0.364-0.014,0.457c0,0.418,0.063,0.766,0.188,1.041
				c0.124,0.276,0.342,0.486,0.652,0.632s0.643,0.218,0.997,0.218c0.337,0,0.655-0.063,0.957-0.191
				c0.273-0.116,0.507-0.279,0.701-0.488s0.358-0.49,0.492-0.846c0.099-0.255,0.174-0.609,0.226-1.063
				c0.041-0.319,0.079-0.868,0.113-1.646c0.049-0.941,0.082-1.896,0.1-2.867c0.576,0.012,1.015,0.018,1.317,0.018
				c0.344,0,0.729-0.006,1.16-0.018c-0.069,0.831-0.142,1.869-0.217,3.115s-0.128,2.274-0.156,3.084
				C82.208,43.655,82.186,44.542,82.168,45.506z"/>
			<path fill="#FFFFFF" d="M84.267,45.506l0.227-1.969l0.577-6.918l0.201-3.006c0.83,0.012,1.436,0.017,1.818,0.017
				c0.308,0,0.868-0.005,1.68-0.017c0.094,0.47,0.163,0.804,0.21,1.002c0.047,0.197,0.137,0.514,0.271,0.949
				s0.306,0.965,0.516,1.586c0.309,0.941,0.585,1.87,0.829,2.788l0.664,2.492l1.165-3.198l1.696-4.156
				c0.058-0.139,0.117-0.301,0.179-0.483c0.061-0.183,0.163-0.51,0.309-0.979c0.691,0.012,1.308,0.017,1.848,0.017
				c0.36,0,0.937-0.005,1.727-0.017c-0.081,1.672-0.143,3.521-0.183,5.545c-0.04,2.025-0.061,3.537-0.061,4.535
				c0,0.482,0.006,1.087,0.018,1.813c-0.575-0.012-0.968-0.018-1.177-0.018c-0.303,0-0.703,0.006-1.203,0.018
				c0.035-0.592,0.058-1.08,0.069-1.463l0.146-5.186c0.018-0.731,0.026-1.451,0.026-2.16l-0.009-0.706l-3.203,8.478l-0.373,1.037
				c-0.565-0.012-0.954-0.018-1.164-0.018c-0.262,0-0.674,0.006-1.233,0.018l-1.5-5.367c-0.052-0.191-0.174-0.592-0.366-1.202
				l-0.54-1.778c-0.053-0.168-0.092-0.306-0.118-0.413c-0.025-0.107-0.083-0.347-0.17-0.719l-0.113,1.115
				c-0.029,0.354-0.072,0.946-0.131,1.777l-0.34,5.402c-0.012,0.267-0.021,0.662-0.026,1.185l-1.124-0.018
				C85.216,45.489,84.836,45.495,84.267,45.506z"/>
			<path fill="#FFFFFF" d="M100.813,38.588c0.082-0.418,0.133-0.711,0.152-0.88c0.021-0.169,0.057-0.425,0.109-0.767
				c0.79-0.186,1.487-0.316,2.091-0.393c0.604-0.075,1.188-0.113,1.752-0.113c0.639,0,1.226,0.074,1.76,0.223
				s0.953,0.385,1.255,0.71s0.453,0.793,0.453,1.403c0,0.33-0.046,1.174-0.139,2.531c-0.092,1.355-0.147,2.758-0.164,4.203
				c-0.442-0.012-0.85-0.018-1.221-0.018c-0.355,0-0.771,0.006-1.247,0.018c0.076-0.702,0.138-1.516,0.185-2.439l0.114-2.17
				c-0.221,0.146-0.389,0.248-0.505,0.306c-0.117,0.058-0.248,0.112-0.393,0.161c-0.146,0.049-0.401,0.125-0.768,0.227
				s-0.66,0.189-0.881,0.266s-0.42,0.161-0.598,0.257c-0.178,0.097-0.327,0.204-0.449,0.323s-0.211,0.243-0.266,0.374
				c-0.056,0.131-0.083,0.271-0.083,0.423c0,0.244,0.071,0.454,0.214,0.631c0.142,0.178,0.32,0.301,0.535,0.371
				c0.215,0.069,0.468,0.104,0.759,0.104c0.186,0,0.382-0.015,0.588-0.044s0.483-0.102,0.832-0.218
				c-0.122,0.331-0.265,0.825-0.427,1.481c-0.413,0.07-0.741,0.113-0.985,0.131c-0.243,0.018-0.47,0.025-0.679,0.025
				c-0.732,0-1.334-0.098-1.804-0.295c-0.471-0.198-0.818-0.512-1.042-0.941s-0.335-0.863-0.335-1.299
				c0-0.25,0.043-0.496,0.131-0.74c0.087-0.244,0.215-0.468,0.384-0.672c0.168-0.203,0.386-0.398,0.653-0.588
				c0.268-0.188,0.654-0.371,1.16-0.549c0.505-0.177,1.174-0.355,2.005-0.535c0.221-0.047,0.45-0.104,0.688-0.17
				s0.429-0.133,0.571-0.196s0.266-0.147,0.37-0.249c0.105-0.102,0.182-0.207,0.231-0.317s0.074-0.224,0.074-0.34
				c0-0.227-0.074-0.419-0.223-0.575c-0.147-0.156-0.34-0.266-0.575-0.326c-0.235-0.062-0.496-0.092-0.78-0.092
				C103.26,37.831,102.092,38.083,100.813,38.588z"/>
			<path fill="#FFFFFF" d="M120.147,43.329c-0.128,0.68-0.238,1.371-0.331,2.074c-0.662,0.115-1.27,0.197-1.821,0.244
				c-0.552,0.046-1.024,0.068-1.42,0.068c-0.871,0-1.703-0.121-2.496-0.365s-1.508-0.629-2.144-1.154
				c-0.637-0.525-1.097-1.164-1.381-1.913c-0.285-0.749-0.428-1.568-0.428-2.457c0-0.964,0.172-1.856,0.515-2.675
				c0.343-0.819,0.835-1.51,1.477-2.074c0.642-0.563,1.401-0.982,2.278-1.259c0.878-0.276,1.792-0.414,2.745-0.414
				c0.941,0,1.97,0.108,3.085,0.323c0.017,0.517,0.034,0.883,0.052,1.098l0.062,0.932c-0.657-0.174-1.203-0.293-1.639-0.357
				c-0.436-0.063-0.851-0.096-1.246-0.096c-0.621,0-1.219,0.095-1.79,0.283c-0.572,0.189-1.078,0.49-1.517,0.902
				s-0.775,0.91-1.011,1.494s-0.353,1.192-0.353,1.825c0,0.755,0.145,1.433,0.436,2.03c0.29,0.599,0.757,1.084,1.398,1.455
				c0.642,0.372,1.437,0.558,2.383,0.558C117.879,43.851,118.928,43.677,120.147,43.329z"/>
			<path fill="#FFFFFF" d="M126.604,36.436c0.668,0,1.309,0.101,1.921,0.301c0.613,0.2,1.133,0.496,1.56,0.889
				c0.428,0.393,0.748,0.871,0.963,1.438s0.322,1.164,0.322,1.791c0,0.662-0.113,1.301-0.34,1.917
				c-0.226,0.616-0.555,1.148-0.984,1.599s-0.966,0.787-1.607,1.011s-1.326,0.335-2.052,0.335c-0.674,0-1.314-0.1-1.922-0.3
				c-0.606-0.2-1.125-0.501-1.555-0.901c-0.431-0.401-0.757-0.89-0.98-1.465c-0.224-0.574-0.336-1.176-0.336-1.803
				c0-0.64,0.102-1.25,0.306-1.83c0.203-0.581,0.521-1.098,0.954-1.551s0.985-0.805,1.659-1.055S125.884,36.436,126.604,36.436z
				 M126.604,38.231c-0.503,0-0.953,0.123-1.35,0.371c-0.396,0.246-0.691,0.613-0.886,1.102c-0.193,0.488-0.291,1.02-0.291,1.595
				c0,0.505,0.08,0.956,0.239,1.351s0.419,0.715,0.781,0.959c0.361,0.243,0.791,0.365,1.289,0.365c0.51,0,0.956-0.126,1.342-0.379
				c0.385-0.252,0.674-0.625,0.868-1.115c0.193-0.49,0.291-1.033,0.291-1.625c0-0.482-0.076-0.921-0.227-1.316
				c-0.15-0.395-0.403-0.711-0.76-0.949C127.546,38.35,127.113,38.231,126.604,38.231z"/>
			<path fill="#FFFFFF" d="M141.871,45.506c-0.482-0.012-0.857-0.018-1.124-0.018c-0.291,0-0.692,0.006-1.203,0.018l0.077-1.516
				c-0.256,0.331-0.475,0.587-0.658,0.767c-0.183,0.181-0.409,0.347-0.68,0.501c-0.27,0.154-0.562,0.27-0.875,0.344
				c-0.313,0.076-0.639,0.113-0.976,0.113c-0.558,0-1.08-0.102-1.568-0.305s-0.903-0.488-1.246-0.857s-0.595-0.808-0.758-1.316
				c-0.162-0.508-0.244-1.038-0.244-1.59c0-0.762,0.146-1.504,0.436-2.227s0.688-1.309,1.193-1.756
				c0.504-0.447,1.076-0.764,1.715-0.949c0.638-0.186,1.323-0.279,2.055-0.279c0.527,0,1.126,0.05,1.793,0.148
				c0.043-0.756,0.064-1.549,0.064-2.379v-0.592c0.547,0.012,0.966,0.017,1.256,0.017c0.378,0,0.803-0.005,1.273-0.017
				c-0.127,1.475-0.248,3.483-0.36,6.024C141.928,42.18,141.871,44.135,141.871,45.506z M139.719,38.24
				c-0.437-0.116-0.854-0.175-1.255-0.175c-0.459,0-0.897,0.064-1.316,0.192c-0.418,0.128-0.788,0.346-1.11,0.653
				c-0.323,0.309-0.571,0.703-0.745,1.186c-0.175,0.482-0.262,0.947-0.262,1.394c0,0.448,0.08,0.856,0.239,1.229
				c0.16,0.371,0.408,0.664,0.745,0.879s0.717,0.322,1.142,0.322c0.319,0,0.609-0.057,0.871-0.17
				c0.261-0.113,0.499-0.287,0.714-0.521c0.215-0.236,0.396-0.539,0.545-0.911s0.254-0.866,0.318-1.481
				C139.646,40.383,139.684,39.518,139.719,38.24z"/>
			<path fill="#FFFFFF" d="M151.935,43.529c-0.075,0.343-0.183,0.958-0.322,1.847c-0.628,0.135-1.156,0.225-1.586,0.271
				c-0.43,0.046-0.862,0.068-1.299,0.068c-0.761,0-1.441-0.074-2.043-0.226s-1.128-0.429-1.581-0.831
				c-0.453-0.404-0.787-0.898-1.002-1.484c-0.216-0.586-0.323-1.201-0.323-1.846c0-0.714,0.125-1.406,0.375-2.076
				s0.6-1.219,1.05-1.646s0.963-0.728,1.538-0.905c0.575-0.177,1.177-0.266,1.804-0.266c0.593,0,1.156,0.074,1.69,0.223
				c0.534,0.146,0.983,0.389,1.347,0.726c0.362,0.337,0.642,0.741,0.836,1.213c0.194,0.473,0.292,0.999,0.292,1.579
				c0,0.271-0.029,0.553-0.087,0.844l-6.387,0.008c-0.012,0.215-0.018,0.387-0.018,0.515c0,0.39,0.066,0.746,0.2,1.071
				c0.134,0.326,0.328,0.602,0.584,0.828c0.255,0.227,0.561,0.394,0.915,0.501c0.354,0.107,0.702,0.161,1.045,0.161
				c0.401,0,0.835-0.043,1.303-0.131C150.733,43.886,151.29,43.738,151.935,43.529z M146.306,40.008l4.078,0.01
				c0-0.278-0.009-0.484-0.026-0.617s-0.057-0.285-0.118-0.455c-0.061-0.171-0.144-0.321-0.248-0.451
				c-0.104-0.131-0.227-0.238-0.366-0.326c-0.139-0.086-0.3-0.152-0.483-0.199c-0.183-0.046-0.379-0.069-0.588-0.069
				c-0.244,0-0.48,0.038-0.71,0.112c-0.229,0.076-0.44,0.186-0.632,0.33s-0.348,0.307-0.466,0.486
				c-0.119,0.18-0.208,0.352-0.267,0.517C146.422,39.51,146.363,39.731,146.306,40.008z"/>
			<path fill="#FFFFFF" d="M154.078,45.506c0.022-0.418,0.055-1.199,0.096-2.344l1.324,0.018c0.116,0,0.497-0.006,1.142-0.018
				c-0.029,0.424-0.053,0.852-0.069,1.281l-0.053,1.063l-1.142-0.018C155.33,45.489,154.897,45.495,154.078,45.506z"/>
			<path fill="#FFFFFF" d="M165.588,43.495c-0.028,0.238-0.072,0.508-0.13,0.81c-0.059,0.302-0.119,0.677-0.184,1.124
				c-0.83,0.191-1.649,0.287-2.457,0.287c-0.471,0-0.924-0.043-1.359-0.13s-0.841-0.243-1.215-0.466
				c-0.375-0.225-0.705-0.52-0.989-0.885c-0.285-0.366-0.498-0.809-0.641-1.329c-0.143-0.52-0.214-1.056-0.214-1.607
				c0-0.731,0.118-1.435,0.354-2.108s0.579-1.225,1.032-1.651s0.957-0.718,1.512-0.872c0.555-0.153,1.172-0.23,1.852-0.23
				c0.378,0,0.767,0.021,1.168,0.065c0.4,0.044,0.874,0.132,1.42,0.266l0.131,1.909c-0.864-0.297-1.618-0.445-2.262-0.445
				c-0.395,0-0.767,0.066-1.117,0.201c-0.352,0.133-0.652,0.344-0.905,0.631c-0.252,0.288-0.432,0.621-0.539,0.998
				s-0.161,0.764-0.161,1.158c0,0.553,0.086,1.03,0.257,1.434c0.171,0.404,0.466,0.717,0.883,0.938s0.893,0.33,1.427,0.33
				c0.261,0,0.578-0.033,0.952-0.1S165.171,43.645,165.588,43.495z"/>
			<path fill="#FFFFFF" d="M172.132,36.436c0.668,0,1.309,0.101,1.921,0.301c0.613,0.2,1.133,0.496,1.56,0.889
				c0.428,0.393,0.748,0.871,0.963,1.438s0.322,1.164,0.322,1.791c0,0.662-0.113,1.301-0.34,1.917
				c-0.226,0.616-0.555,1.148-0.984,1.599s-0.966,0.787-1.607,1.011s-1.326,0.335-2.052,0.335c-0.674,0-1.314-0.1-1.922-0.3
				c-0.606-0.2-1.125-0.501-1.555-0.901c-0.431-0.401-0.757-0.89-0.98-1.465c-0.224-0.574-0.336-1.176-0.336-1.803
				c0-0.64,0.102-1.25,0.306-1.83c0.203-0.581,0.521-1.098,0.954-1.551s0.985-0.805,1.659-1.055S171.411,36.436,172.132,36.436z
				 M172.131,38.231c-0.503,0-0.953,0.123-1.35,0.371c-0.396,0.246-0.691,0.613-0.886,1.102c-0.193,0.488-0.291,1.02-0.291,1.595
				c0,0.505,0.08,0.956,0.239,1.351s0.419,0.715,0.781,0.959c0.361,0.243,0.791,0.365,1.289,0.365c0.51,0,0.956-0.126,1.342-0.379
				c0.385-0.252,0.674-0.625,0.868-1.115c0.193-0.49,0.291-1.033,0.291-1.625c0-0.482-0.076-0.921-0.227-1.316
				c-0.15-0.395-0.403-0.711-0.76-0.949C173.073,38.35,172.641,38.231,172.131,38.231z"/>
			<path fill="#FFFFFF" d="M178.405,45.506c0.081-0.986,0.167-2.463,0.257-4.426s0.136-3.441,0.136-4.436
				c0.493,0.012,0.894,0.018,1.201,0.018c0.354,0,0.738-0.006,1.151-0.018l-0.067,1.403c0.186-0.272,0.355-0.495,0.51-0.667
				c0.153-0.171,0.353-0.33,0.597-0.475s0.529-0.26,0.857-0.344s0.667-0.127,1.016-0.127c0.261,0,0.514,0.025,0.758,0.074
				c0.243,0.049,0.466,0.119,0.666,0.209s0.371,0.193,0.514,0.31s0.263,0.245,0.361,0.388s0.206,0.354,0.322,0.632
				c0.128-0.204,0.246-0.374,0.354-0.51c0.107-0.137,0.251-0.277,0.431-0.423c0.181-0.145,0.381-0.268,0.602-0.365
				c0.221-0.1,0.469-0.176,0.745-0.231c0.275-0.056,0.562-0.083,0.857-0.083c0.506,0,0.981,0.083,1.429,0.248
				c0.447,0.166,0.799,0.428,1.055,0.785c0.255,0.357,0.383,0.8,0.383,1.328c0,0.279-0.02,0.688-0.06,1.229
				c-0.041,0.541-0.09,1.422-0.146,2.645c-0.058,1.223-0.089,2.168-0.095,2.836c-0.425-0.012-0.8-0.018-1.126-0.018
				c-0.384,0-0.835,0.006-1.353,0.018c0.053-0.749,0.103-1.533,0.148-2.352l0.105-1.996c0.029-0.506,0.044-0.932,0.044-1.281
				c0-0.414-0.065-0.729-0.196-0.941s-0.297-0.365-0.497-0.455c-0.2-0.092-0.426-0.137-0.676-0.137c-0.261,0-0.498,0.05-0.71,0.148
				c-0.212,0.1-0.41,0.26-0.593,0.482c-0.184,0.222-0.324,0.48-0.423,0.774c-0.099,0.295-0.171,0.708-0.217,1.239
				s-0.083,1.23-0.112,2.096l-0.06,2.422c-0.483-0.012-0.885-0.018-1.204-0.018c-0.32,0-0.748,0.006-1.282,0.018
				c0.04-0.447,0.098-1.361,0.173-2.744s0.113-2.314,0.113-2.797c0-0.256-0.021-0.473-0.062-0.649
				c-0.04-0.177-0.123-0.346-0.248-0.505c-0.125-0.16-0.271-0.277-0.439-0.354c-0.168-0.075-0.363-0.113-0.583-0.113
				c-0.407,0-0.764,0.134-1.071,0.4c-0.308,0.268-0.533,0.625-0.675,1.072c-0.143,0.447-0.245,1.317-0.309,2.609
				c-0.063,1.293-0.095,2.32-0.095,3.08c-0.533-0.012-0.937-0.018-1.209-0.018C179.376,45.489,178.95,45.495,178.405,45.506z"/>
		</g>
		<g>
			<path fill="#FFFFFF" d="M58.653,6.628c0.189,0.118,0.284,0.189,0.284,0.26s-0.118,0.142-0.331,0.236
				c-0.425,0.189-0.496,0.236-0.732,0.732c-0.685,1.488-1.488,3.166-2.126,4.417l0.921,0.543c0.118,0.071,0.189,0.118,0.189,0.189
				c0,0.095-0.071,0.142-0.638,0.567v8.976c0,1.464,0.023,2.669,0.094,3.732v0.165c0,0.26-0.071,0.354-0.567,0.638
				c-0.26,0.142-0.425,0.236-0.543,0.236c-0.118,0-0.166-0.142-0.166-0.496V26.47c0.071-1.394,0.095-2.74,0.095-3.968v-9.094
				c-1.181,2.196-2.41,3.968-3.543,5.314l-0.283-0.189c2.386-3.874,4.583-8.48,5.834-12.826L58.653,6.628z M72.495,20.942
				c-0.023,0.662-0.047,1.205-0.047,1.63c0,1.323,0.166,1.63,0.732,1.913c0.166,0.071,0.236,0.118,0.236,0.236
				c0,0.047-0.047,0.142-0.095,0.26c-0.59,1.252-1.323,1.536-3.377,1.536c-3.945,0-4.181-0.118-4.181-1.843v-11.81H64.11
				c-0.638,8.905-1.937,11.574-7.157,15.022l-0.142-0.26c4.441-3.543,5.716-6.803,6.236-14.763h-3.401
				c-0.496,0-1.181,0.094-1.583,0.26l-0.661-0.874c0.59,0.047,1.181,0.095,1.724,0.095h3.945c0.118-1.89,0.188-4.323,0.188-6.685
				l1.772,0.874c0.189,0.095,0.283,0.166,0.283,0.26c0,0.071-0.094,0.166-0.283,0.307L64.44,7.549
				c-0.094,1.606-0.212,3.425-0.307,4.795H70.7l0.921-1.252l1.464,1.275c0.213,0.189,0.307,0.307,0.307,0.378
				c0,0.094-0.118,0.118-0.401,0.118H66.85v11.692c0,0.803,0.212,0.969,2.173,0.969h0.897c1.795-0.047,1.914-0.236,2.173-4.583
				H72.495z M66.826,6.747c1.086,0.401,3.59,1.299,3.59,2.551c0,0.614-0.401,1.229-0.779,1.229c-0.236,0-0.473-0.236-0.662-0.921
				c-0.165-0.59-0.968-1.771-2.268-2.646L66.826,6.747z"/>
			<path fill="#FFFFFF" d="M85.583,8.093c0.118,0.118,0.165,0.189,0.165,0.26s-0.071,0.095-0.236,0.095h-4.323
				c-0.496,1.701-1.417,4.157-2.291,6.094h3.188l0.709-0.898l1.323,0.969c0.094,0.071,0.165,0.142,0.165,0.189
				c0,0.071-0.047,0.118-0.142,0.189l-0.59,0.401v5.598c0,1.205,0.047,2.386,0.118,3.449v0.189c0,0.307-0.071,0.401-0.567,0.614
				c-0.236,0.095-0.378,0.142-0.472,0.142c-0.142,0-0.166-0.118-0.166-0.307v-1.63h-3.283v2.22c0,0.284-0.047,0.378-0.425,0.543
				c-0.213,0.094-0.378,0.142-0.473,0.142c-0.166,0-0.212-0.118-0.212-0.401c0-0.095,0.023-0.213,0.023-0.354
				c0.047-0.968,0.071-1.748,0.071-2.787v-6.685c-0.968,1.96-1.583,2.905-2.764,4.464l-0.283-0.189
				c2.338-4.181,3.921-8.361,4.748-11.952H77.74c-0.496,0-1.181,0.094-1.583,0.26l-0.661-0.874c0.59,0.047,1.181,0.094,1.724,0.094
				h5.953l1.134-1.063L85.583,8.093z M82.464,22.927v-7.866h-3.283v7.866H82.464z M93.755,20.73
				c0.094,0.094,0.142,0.165,0.142,0.236c0,0.071-0.071,0.094-0.236,0.094h-7.228c-0.496,0-1.181,0.094-1.583,0.26l-0.661-0.874
				c0.59,0.071,1.181,0.095,1.724,0.095h5.457l0.874-1.276L93.755,20.73z M96.92,17.069c0.094,0.071,0.142,0.142,0.142,0.189
				c0,0.071-0.047,0.118-0.165,0.189l-0.732,0.401c-0.095,1.512-0.213,2.811-0.378,4.724c-0.284,3.307-0.543,3.732-2.551,4.677
				c-0.094,0.047-0.142,0.071-0.212,0.071s-0.118-0.071-0.142-0.212c-0.095-0.732-0.614-1.181-2.716-1.819l0.094-0.354
				c1.252,0.236,2.126,0.402,2.74,0.402c1.299,0,1.44-0.732,1.677-2.882c0.213-2.008,0.284-3.401,0.284-4.937h-7.157l-0.472,0.614
				c-0.047,0.071-0.118,0.118-0.189,0.118c-0.047,0-0.118-0.023-0.189-0.071l-1.347-0.874l0.851-0.614l0.897-5.575
				c0.095-0.614,0.189-1.181,0.236-1.866l1.583,0.992c0.094,0.047,0.142,0.095,0.142,0.142c0,0.047-0.047,0.094-0.142,0.142
				l-0.756,0.354l-0.921,6.142h4.748l0.921-8.881h-5.267c-0.496,0-1.181,0.094-1.583,0.26l-0.662-0.874
				c0.708,0.071,1.275,0.095,1.724,0.095h5.409l0.803-1.04l1.535,1.158c0.118,0.071,0.189,0.142,0.189,0.212
				s-0.071,0.118-0.189,0.189L94.18,8.636l-0.85,8.385h1.346l0.732-1.016L96.92,17.069z"/>
			<path fill="#FFFFFF" d="M119.361,7.479c0.118,0.071,0.166,0.142,0.166,0.189c0,0.047-0.071,0.095-0.189,0.166l-0.898,0.496
				v14.125c0,1.795,0.047,2.929,0.118,3.992v0.166c0,0.331-0.094,0.425-0.59,0.638c-0.189,0.095-0.331,0.118-0.425,0.118
				c-0.142,0-0.189-0.094-0.189-0.283v-1.725h-15.589v1.252c0,0.284-0.071,0.425-0.473,0.59c-0.165,0.071-0.307,0.118-0.401,0.118
				c-0.189,0-0.26-0.165-0.26-0.567v-0.165c0.047-1.394,0.071-2.551,0.071-4.795V9.486c0-1.37-0.024-2.716-0.071-3.449l1.606,1.299
				h14.55l0.851-1.11L119.361,7.479z M117.354,24.84V7.856h-15.589V24.84H117.354z M116.244,12.652
				c0.094,0.094,0.142,0.165,0.142,0.212s-0.071,0.071-0.189,0.071h-4.441v8.858c0,0.992-0.212,1.441-1.653,2.197
				c-0.071,0.047-0.142,0.071-0.189,0.071c-0.094,0-0.118-0.071-0.142-0.166c-0.142-0.756-0.425-1.323-2.622-2.008l0.095-0.331
				c1.441,0.307,2.268,0.472,2.764,0.472c0.638,0,0.708-0.236,0.708-0.756v-8.338h-0.26c-1.89,3.283-4.205,6.094-7.606,8.598
				l-0.236-0.212c3.166-2.834,5.362-5.48,6.614-8.385h-4.322c-0.496,0-1.181,0.095-1.583,0.26l-0.661-0.874
				c0.59,0.047,1.181,0.095,1.724,0.095h6.331v-0.709c0-1.394,0-2.456-0.047-3.33l1.653,0.779c0.142,0.071,0.189,0.118,0.189,0.166
				c0,0.023-0.023,0.071-0.118,0.118l-0.638,0.354v2.622h2.149l0.945-1.181L116.244,12.652z"/>
			<path fill="#FFFFFF" d="M131.055,7.667c0.118,0.095,0.165,0.166,0.165,0.213c0,0.071-0.047,0.142-0.165,0.189
				c-0.78,0.354-1.205,0.779-1.441,1.228l-2.292,4.299c2.717,2.055,3.449,3.401,3.449,5.055c0,0.165,0,0.331-0.023,0.496
				c-0.166,1.984-2.716,2.811-2.811,2.811c-0.118,0-0.212-0.071-0.236-0.26c-0.142-0.59-0.614-1.039-2.031-1.559l0.047-0.283
				c0.874,0.26,1.559,0.401,2.102,0.401c1.229,0,1.725-0.638,1.795-1.559v-0.189c0-1.346-0.968-3.236-2.929-4.866L129,8.045h-3.921
				v15.566c0,1.228,0.023,1.937,0.047,3.141c0,0.378-0.095,0.473-0.662,0.78c-0.212,0.118-0.354,0.189-0.425,0.189
				c-0.094,0-0.118-0.071-0.118-0.213v-0.118c0.047-1.063,0.047-1.347,0.047-3.992V9.77c0-0.614-0.023-2.031-0.071-3.307
				l1.583,1.063h3.212l0.732-1.086L131.055,7.667z M136.724,7.786c-0.142,10.322,2.787,16.889,7.795,17.598l-0.024,0.331
				c-1.299,0-1.89,0.26-2.409,0.874c-0.047,0.047-0.071,0.071-0.118,0.071c-0.023,0-0.071-0.023-0.094-0.047
				c-3.496-2.905-5.504-7.181-5.504-15.873c0-0.874,0.023-1.795,0.071-2.764l-0.165,0.095c-0.449,12.731-1.37,16.227-9.874,19.156
				l-0.189-0.26c3.047-1.205,5.551-3,6.755-5.031c1.63-2.74,2.149-6.779,2.386-15.968l2.008,1.087
				c0.094,0.047,0.142,0.094,0.142,0.142s-0.047,0.094-0.142,0.166L136.724,7.786z"/>
			<path fill="#FFFFFF" d="M158.291,6.747c0.166,0.071,0.236,0.142,0.236,0.212c0,0.118-0.685,0.189-0.827,0.236
				c1.984,4.181,5.598,6.968,10.346,7.677l-0.071,0.283c-1.158-0.023-2.055,0.284-2.433,0.803c-0.047,0.047-0.071,0.071-0.118,0.071
				c-0.071,0-0.118-0.023-0.212-0.071c-4.063-2.409-6.307-4.535-7.866-8.551c-4.157,5.126-6.755,7.677-11.338,9.992l-0.118-0.26
				c4.488-2.929,8.551-7.11,10.629-11.244L158.291,6.747z M155.031,14.99c0.118,0.047,0.166,0.094,0.166,0.165
				c0,0.047-0.047,0.095-0.118,0.142l-0.661,0.472c-0.284,4.606-0.354,5.314-0.921,6.708c-1.016,2.527-3.354,4.181-6.543,5.196
				l-0.118-0.26c6.307-3.283,6.425-5.622,6.377-13.298L155.031,14.99z M161.244,15.037c0.166,0.071,0.236,0.142,0.236,0.189
				c0,0.071-0.071,0.142-0.189,0.213l-0.685,0.401v6.448c0,1.795,0.023,3.095,0.094,4.157v0.166c0,0.331-0.094,0.402-0.59,0.638
				c-0.189,0.095-0.354,0.142-0.449,0.142c-0.212,0-0.26-0.166-0.26-0.614v-0.166c0.047-1.394,0.071-3.047,0.071-4.394v-4.629
				c0-0.969-0.047-2.575-0.095-3.449L161.244,15.037z"/>
			<path fill="#FFFFFF" d="M179.362,10.88c0.142,0.095,0.189,0.166,0.189,0.213c0,0.071-0.071,0.094-0.236,0.142
				c-0.236,0.047-0.52,0.189-0.662,0.378c-1.299,1.653-3.472,4.417-5.952,7.582l5.763-0.708l0.047,0.307
				c-3.85,0.827-5.433,1.252-6.094,1.701c-0.094,0.047-0.165,0.095-0.212,0.095c-0.071,0-0.118-0.047-0.166-0.118l-0.779-1.134
				c1.086-0.331,1.441-0.52,4.701-5.669c-2.504,0.378-3.992,0.732-4.535,1.11c-0.071,0.047-0.142,0.095-0.189,0.095
				c-0.047,0-0.095-0.047-0.166-0.142l-0.827-1.275c0.85-0.212,1.086-0.331,1.748-1.299c1.063-1.536,2.74-4.866,3.188-6.212
				l1.512,0.921c0.118,0.071,0.166,0.118,0.166,0.165c0,0.047-0.071,0.095-0.212,0.166c-0.543,0.212-0.638,0.307-0.874,0.638
				c-1.465,1.937-2.551,3.401-4.181,5.598l4.583-0.118c1.039-1.701,1.583-2.834,1.795-3.401L179.362,10.88z M179.338,22.478
				l-3.425,1.251c-2.386,0.874-3.992,1.654-4.275,1.96c-0.071,0.071-0.118,0.095-0.189,0.095c-0.047,0-0.094-0.023-0.142-0.095
				l-0.921-1.251l8.858-2.244L179.338,22.478z M190.818,7.691c0.142,0.118,0.213,0.189,0.213,0.26c0,0.047-0.047,0.118-0.166,0.189
				l-0.661,0.449c-0.142,6.637-0.732,7.015-2.457,7.937c-0.118,0.047-0.213,0.094-0.26,0.094c-0.095,0-0.142-0.071-0.166-0.188
				c-0.189-0.732-0.425-0.921-2.48-1.606l0.023-0.331c1.086,0.189,1.842,0.283,2.409,0.283c1.347,0,1.488-0.614,1.677-2.433
				c0.071-0.709,0.142-2.504,0.142-4.157h-4.701c-0.26,4.771-1.629,6.944-5.857,9.188l-0.118-0.307
				c3.85-2.669,4.795-4.842,4.818-8.881h-2.173c-0.496,0-1.181,0.094-1.583,0.26l-0.661-0.874c0.59,0.071,1.181,0.094,1.724,0.094
				h8.22l0.779-0.921L190.818,7.691z M190.511,18.438c0.094,0.071,0.142,0.142,0.142,0.189c0,0.047-0.047,0.118-0.118,0.166
				l-0.638,0.472v4.771c0,0.803,0.023,1.488,0.094,2.551v0.142c0,0.354-0.094,0.449-0.59,0.662
				c-0.236,0.094-0.378,0.142-0.449,0.142c-0.142,0-0.166-0.118-0.166-0.307v-1.653h-7.015v1.063c0,0.331-0.047,0.425-0.449,0.59
				c-0.213,0.094-0.378,0.142-0.496,0.142c-0.189,0-0.236-0.142-0.236-0.472v-0.284c0.071-1.394,0.071-2.126,0.071-2.953v-4.063
				c0-0.567-0.023-1.701-0.071-2.433l1.701,1.086h6.212l0.59-0.897L190.511,18.438z M188.787,25.052V18.77h-7.015v6.283H188.787z"/>
		</g>
	</g>
</g>
</svg>
